PathFileType	4	(X / Y / Z)	Demo_151852_11_September_2019	Demo_151852_11_September_2019.trc
DataRate	CameraRate	NumFrames	NumMarkers	Units	OrigDataRate	OrigDataStartFrame	OrigNumFrames
50	50	23	25	m	50	308	2071
Frame#	Time		SpineBase		SpineMid		Neck		Head		ShoulderLeft		ElbowLeft		WristLeft		HandLeft		ShoulderRight		ElbowRight		WristRight		HandRight		HipLeft		KneeLeft		AnkleLeft		FootLeft		HipRight		KneeRight		AnkleRight		FootRight		SpineShoulder		HandTipLeft		LeftThumb		HandTipRight		ThumbRight		
X1	Y1	Z1	X2	Y2	Z2	X3	Y3	Z3	X4	Y4	Z4	X5	Y5	Z5	X6	Y6	Z6	X7	Y7	Z7	X8	Y8	Z8	X9	Y9	Z9	X10	Y10	Z10	X11	Y11	Z11	X12	Y12	Z12	X13	Y13	Z13	X14	Y14	Z14	X15	Y15	Z15	X16	Y16	Z16	X17	Y17	Z17	X18	Y18	Z18	X19	Y19	Z19	X20	Y20	Z20	X21	Y21	Z21	X22	Y22	Z22	X23	Y23	Z23	X24	Y24	Z24	X25	Y25	Z25	
259	23.330	0.056	0.720	1.491	0.039	1.014	1.459	0.020	1.297	1.418	0.025	1.441	1.378	-0.124	1.189	1.399	-0.233	1.062	1.289	-0.129	1.265	1.186	-0.088	1.345	1.164	0.207	1.213	1.424	0.421	1.325	1.365	0.565	1.450	1.321	0.611	1.502	1.306	-0.016	0.724	1.453	-0.068	0.427	1.501	-0.045	0.282	1.559	-0.022	0.272	1.526	0.125	0.729	1.462	0.177	0.435	1.528	0.152	0.275	1.589	0.134	0.264	1.554	0.025	1.228	1.430	-0.061	1.421	1.148	-0.098	1.383	1.143	0.695	1.584	1.288	0.661	1.537	1.254
260	23.347	0.056	0.720	1.491	0.039	1.014	1.459	0.020	1.297	1.418	0.025	1.441	1.378	-0.124	1.189	1.399	-0.233	1.062	1.289	-0.129	1.265	1.186	-0.088	1.345	1.164	0.207	1.213	1.424	0.421	1.325	1.365	0.565	1.450	1.321	0.611	1.502	1.306	-0.016	0.724	1.453	-0.068	0.427	1.501	-0.045	0.282	1.559	-0.022	0.272	1.526	0.125	0.729	1.462	0.177	0.435	1.528	0.152	0.275	1.589	0.134	0.264	1.554	0.025	1.228	1.430	-0.061	1.421	1.148	-0.098	1.383	1.143	0.695	1.584	1.288	0.661	1.537	1.254
261	23.363	0.056	0.724	1.491	0.039	1.015	1.460	0.020	1.297	1.419	0.027	1.441	1.379	-0.123	1.189	1.399	-0.243	1.082	1.260	-0.110	1.311	1.198	-0.076	1.361	1.193	0.211	1.221	1.425	0.408	1.347	1.363	0.530	1.491	1.316	0.566	1.559	1.299	-0.016	0.728	1.453	-0.072	0.433	1.500	-0.048	0.284	1.559	-0.023	0.274	1.525	0.126	0.732	1.462	0.175	0.438	1.526	0.151	0.275	1.589	0.134	0.264	1.554	0.025	1.228	1.431	-0.042	1.448	1.190	-0.091	1.408	1.172	0.630	1.661	1.298	0.595	1.623	1.247
262	23.380	0.056	0.724	1.491	0.039	1.015	1.460	0.020	1.297	1.419	0.027	1.441	1.379	-0.123	1.189	1.399	-0.243	1.082	1.260	-0.110	1.311	1.198	-0.076	1.361	1.193	0.211	1.221	1.425	0.408	1.347	1.363	0.530	1.491	1.316	0.566	1.559	1.299	-0.016	0.728	1.453	-0.072	0.433	1.500	-0.048	0.284	1.559	-0.023	0.274	1.525	0.126	0.732	1.462	0.175	0.438	1.526	0.151	0.275	1.589	0.134	0.264	1.554	0.025	1.228	1.431	-0.042	1.448	1.190	-0.091	1.408	1.172	0.630	1.661	1.298	0.595	1.623	1.247
263	23.397	0.056	0.724	1.491	0.039	1.015	1.460	0.020	1.297	1.419	0.027	1.441	1.379	-0.123	1.189	1.399	-0.243	1.082	1.260	-0.110	1.311	1.198	-0.076	1.361	1.193	0.211	1.221	1.425	0.408	1.347	1.363	0.530	1.491	1.316	0.566	1.559	1.299	-0.016	0.728	1.453	-0.072	0.433	1.500	-0.048	0.284	1.559	-0.023	0.274	1.525	0.126	0.732	1.462	0.175	0.438	1.526	0.151	0.275	1.589	0.134	0.264	1.554	0.025	1.228	1.431	-0.042	1.448	1.190	-0.091	1.408	1.172	0.630	1.661	1.298	0.595	1.623	1.247
264	23.413	0.057	0.728	1.491	0.039	1.017	1.461	0.020	1.298	1.419	0.028	1.441	1.380	-0.121	1.190	1.399	-0.250	1.092	1.247	-0.105	1.311	1.207	-0.068	1.368	1.212	0.214	1.226	1.425	0.396	1.364	1.363	0.513	1.567	1.306	0.538	1.625	1.294	-0.015	0.732	1.453	-0.076	0.438	1.500	-0.051	0.285	1.559	-0.024	0.276	1.525	0.127	0.735	1.463	0.173	0.440	1.525	0.150	0.275	1.588	0.133	0.264	1.554	0.025	1.229	1.432	-0.029	1.462	1.216	-0.083	1.430	1.183	0.580	1.730	1.299	0.534	1.690	1.250
265	23.430	0.057	0.728	1.491	0.039	1.017	1.461	0.020	1.298	1.419	0.028	1.441	1.380	-0.121	1.190	1.399	-0.250	1.092	1.247	-0.105	1.311	1.207	-0.068	1.368	1.212	0.214	1.226	1.425	0.396	1.364	1.363	0.513	1.567	1.306	0.538	1.625	1.294	-0.015	0.732	1.453	-0.076	0.438	1.500	-0.051	0.285	1.559	-0.024	0.276	1.525	0.127	0.735	1.463	0.173	0.440	1.525	0.150	0.275	1.588	0.133	0.264	1.554	0.025	1.229	1.432	-0.029	1.462	1.216	-0.083	1.430	1.183	0.580	1.730	1.299	0.534	1.690	1.250
266	23.447	0.057	0.731	1.491	0.039	1.018	1.462	0.020	1.298	1.420	0.030	1.441	1.381	-0.119	1.192	1.398	-0.238	1.140	1.218	-0.083	1.347	1.215	-0.060	1.373	1.226	0.216	1.229	1.425	0.385	1.376	1.362	0.498	1.567	1.307	0.516	1.646	1.292	-0.015	0.736	1.452	-0.079	0.442	1.499	-0.054	0.287	1.559	-0.025	0.278	1.524	0.127	0.738	1.463	0.172	0.442	1.524	0.149	0.275	1.588	0.133	0.264	1.554	0.025	1.229	1.433	-0.017	1.461	1.236	-0.072	1.431	1.194	0.549	1.750	1.300	0.501	1.706	1.250
267	23.464	0.057	0.731	1.491	0.039	1.018	1.462	0.020	1.298	1.420	0.030	1.441	1.381	-0.119	1.192	1.398	-0.238	1.140	1.218	-0.083	1.347	1.215	-0.060	1.373	1.226	0.216	1.229	1.425	0.385	1.376	1.362	0.498	1.567	1.307	0.516	1.646	1.292	-0.015	0.736	1.452	-0.079	0.442	1.499	-0.054	0.287	1.559	-0.025	0.278	1.524	0.127	0.738	1.463	0.172	0.442	1.524	0.149	0.275	1.588	0.133	0.264	1.554	0.025	1.229	1.433	-0.017	1.461	1.236	-0.072	1.431	1.194	0.549	1.750	1.300	0.501	1.706	1.250
268	23.480	0.057	0.731	1.491	0.039	1.018	1.462	0.020	1.298	1.420	0.030	1.441	1.381	-0.119	1.192	1.398	-0.238	1.140	1.218	-0.083	1.347	1.215	-0.060	1.373	1.226	0.216	1.229	1.425	0.385	1.376	1.362	0.498	1.567	1.307	0.516	1.646	1.292	-0.015	0.736	1.452	-0.079	0.442	1.499	-0.054	0.287	1.559	-0.025	0.278	1.524	0.127	0.738	1.463	0.172	0.442	1.524	0.149	0.275	1.588	0.133	0.264	1.554	0.025	1.229	1.433	-0.017	1.461	1.236	-0.072	1.431	1.194	0.549	1.750	1.300	0.501	1.706	1.250
269	23.497	0.058	0.734	1.491	0.039	1.020	1.462	0.021	1.299	1.421	0.032	1.440	1.381	-0.116	1.193	1.398	-0.239	1.151	1.208	-0.074	1.356	1.219	-0.055	1.372	1.237	0.217	1.232	1.425	0.376	1.378	1.363	0.487	1.571	1.305	0.509	1.649	1.290	-0.015	0.739	1.452	-0.083	0.446	1.499	-0.056	0.288	1.559	-0.025	0.280	1.523	0.128	0.741	1.463	0.171	0.444	1.523	0.148	0.275	1.588	0.133	0.264	1.554	0.026	1.230	1.433	-0.009	1.450	1.247	-0.063	1.413	1.200	0.535	1.749	1.299	0.485	1.710	1.249
270	23.514	0.058	0.737	1.491	0.040	1.021	1.463	0.022	1.299	1.422	0.033	1.439	1.382	-0.113	1.196	1.397	-0.229	1.173	1.201	-0.068	1.358	1.221	-0.054	1.366	1.241	0.217	1.235	1.425	0.370	1.378	1.364	0.492	1.569	1.299	0.539	1.630	1.281	-0.015	0.742	1.452	-0.087	0.449	1.500	-0.058	0.288	1.559	-0.025	0.281	1.523	0.128	0.744	1.463	0.170	0.446	1.522	0.148	0.275	1.587	0.132	0.265	1.554	0.027	1.231	1.434	-0.003	1.439	1.252	-0.055	1.407	1.205	0.554	1.728	1.290	0.501	1.679	1.243
271	23.530	0.058	0.737	1.491	0.040	1.021	1.463	0.022	1.299	1.422	0.033	1.439	1.382	-0.113	1.196	1.397	-0.229	1.173	1.201	-0.068	1.358	1.221	-0.054	1.366	1.241	0.217	1.235	1.425	0.370	1.378	1.364	0.492	1.569	1.299	0.539	1.630	1.281	-0.015	0.742	1.452	-0.087	0.449	1.500	-0.058	0.288	1.559	-0.025	0.281	1.523	0.128	0.744	1.463	0.170	0.446	1.522	0.148	0.275	1.587	0.132	0.265	1.554	0.027	1.231	1.434	-0.003	1.439	1.252	-0.055	1.407	1.205	0.554	1.728	1.290	0.501	1.679	1.243
272	23.547	0.058	0.737	1.491	0.040	1.021	1.463	0.022	1.299	1.422	0.033	1.439	1.382	-0.113	1.196	1.397	-0.229	1.173	1.201	-0.068	1.358	1.221	-0.054	1.366	1.241	0.217	1.235	1.425	0.370	1.378	1.364	0.492	1.569	1.299	0.539	1.630	1.281	-0.015	0.742	1.452	-0.087	0.449	1.500	-0.058	0.288	1.559	-0.025	0.281	1.523	0.128	0.744	1.463	0.170	0.446	1.522	0.148	0.275	1.587	0.132	0.265	1.554	0.027	1.231	1.434	-0.003	1.439	1.252	-0.055	1.407	1.205	0.554	1.728	1.290	0.501	1.679	1.243
273	23.564	0.058	0.739	1.491	0.040	1.022	1.464	0.023	1.299	1.423	0.035	1.439	1.382	-0.111	1.198	1.396	-0.224	1.183	1.199	-0.069	1.349	1.223	-0.055	1.360	1.241	0.217	1.237	1.425	0.366	1.372	1.365	0.512	1.518	1.297	0.563	1.582	1.275	-0.015	0.744	1.452	-0.090	0.453	1.500	-0.060	0.289	1.560	-0.026	0.282	1.523	0.128	0.746	1.464	0.169	0.448	1.522	0.148	0.275	1.587	0.132	0.265	1.554	0.027	1.232	1.435	-0.001	1.428	1.254	-0.049	1.401	1.208	0.599	1.652	1.276	0.540	1.619	1.237
274	23.580	0.058	0.739	1.491	0.040	1.022	1.464	0.023	1.299	1.423	0.035	1.439	1.382	-0.111	1.198	1.396	-0.224	1.183	1.199	-0.069	1.349	1.223	-0.055	1.360	1.241	0.217	1.237	1.425	0.366	1.372	1.365	0.512	1.518	1.297	0.563	1.582	1.275	-0.015	0.744	1.452	-0.090	0.453	1.500	-0.060	0.289	1.560	-0.026	0.282	1.523	0.128	0.746	1.464	0.169	0.448	1.522	0.148	0.275	1.587	0.132	0.265	1.554	0.027	1.232	1.435	-0.001	1.428	1.254	-0.049	1.401	1.208	0.599	1.652	1.276	0.540	1.619	1.237
275	23.597	0.058	0.741	1.491	0.041	1.023	1.464	0.024	1.300	1.424	0.036	1.439	1.383	-0.110	1.199	1.396	-0.219	1.189	1.198	-0.072	1.341	1.224	-0.057	1.356	1.241	0.217	1.238	1.425	0.365	1.358	1.366	0.538	1.456	1.296	0.601	1.518	1.271	-0.015	0.745	1.452	-0.093	0.455	1.500	-0.062	0.289	1.560	-0.026	0.283	1.522	0.128	0.748	1.464	0.169	0.450	1.521	0.147	0.276	1.587	0.132	0.265	1.554	0.028	1.232	1.436	-0.001	1.420	1.253	-0.046	1.397	1.210	0.649	1.562	1.258	0.551	1.501	1.212
276	23.614	0.058	0.741	1.491	0.041	1.023	1.464	0.024	1.300	1.424	0.036	1.439	1.383	-0.110	1.199	1.396	-0.219	1.189	1.198	-0.072	1.341	1.224	-0.057	1.356	1.241	0.217	1.238	1.425	0.365	1.358	1.366	0.538	1.456	1.296	0.601	1.518	1.271	-0.015	0.745	1.452	-0.093	0.455	1.500	-0.062	0.289	1.560	-0.026	0.283	1.522	0.128	0.748	1.464	0.169	0.450	1.521	0.147	0.276	1.587	0.132	0.265	1.554	0.028	1.232	1.436	-0.001	1.420	1.253	-0.046	1.397	1.210	0.649	1.562	1.258	0.551	1.501	1.212
277	23.631	0.058	0.742	1.492	0.041	1.024	1.465	0.024	1.300	1.425	0.037	1.438	1.383	-0.108	1.200	1.395	-0.216	1.192	1.200	-0.075	1.336	1.225	-0.061	1.352	1.239	0.216	1.239	1.426	0.376	1.322	1.368	0.562	1.378	1.301	0.634	1.425	1.275	-0.015	0.746	1.452	-0.095	0.456	1.500	-0.063	0.290	1.560	-0.026	0.283	1.522	0.128	0.749	1.464	0.169	0.451	1.521	0.147	0.276	1.587	0.131	0.266	1.554	0.028	1.233	1.437	-0.002	1.413	1.253	-0.044	1.375	1.211	0.687	1.459	1.246	0.614	1.418	1.209
278	23.647	0.058	0.742	1.492	0.041	1.024	1.465	0.024	1.300	1.425	0.037	1.438	1.383	-0.108	1.200	1.395	-0.216	1.192	1.200	-0.075	1.336	1.225	-0.061	1.352	1.239	0.216	1.239	1.426	0.376	1.322	1.368	0.562	1.378	1.301	0.634	1.425	1.275	-0.015	0.746	1.452	-0.095	0.456	1.500	-0.063	0.290	1.560	-0.026	0.283	1.522	0.128	0.749	1.464	0.169	0.451	1.521	0.147	0.276	1.587	0.131	0.266	1.554	0.028	1.233	1.437	-0.002	1.413	1.253	-0.044	1.375	1.211	0.687	1.459	1.246	0.614	1.418	1.209
279	23.664	0.058	0.743	1.492	0.041	1.025	1.465	0.024	1.300	1.426	0.038	1.438	1.383	-0.108	1.201	1.395	-0.213	1.192	1.202	-0.077	1.332	1.225	-0.057	1.361	1.242	0.215	1.239	1.427	0.389	1.276	1.370	0.591	1.302	1.305	0.660	1.323	1.285	-0.015	0.747	1.452	-0.096	0.457	1.500	-0.064	0.290	1.560	-0.026	0.284	1.521	0.128	0.749	1.464	0.169	0.451	1.521	0.147	0.276	1.586	0.131	0.266	1.554	0.028	1.233	1.438	-0.001	1.412	1.254	-0.022	1.349	1.252	0.715	1.341	1.244	0.658	1.320	1.220
280	23.681	0.058	0.743	1.492	0.041	1.025	1.465	0.024	1.300	1.426	0.038	1.438	1.383	-0.108	1.201	1.395	-0.213	1.192	1.202	-0.077	1.332	1.225	-0.057	1.361	1.242	0.215	1.239	1.427	0.389	1.276	1.370	0.591	1.302	1.305	0.660	1.323	1.285	-0.015	0.747	1.452	-0.096	0.457	1.500	-0.064	0.290	1.560	-0.026	0.284	1.521	0.128	0.749	1.464	0.169	0.451	1.521	0.147	0.276	1.586	0.131	0.266	1.554	0.028	1.233	1.438	-0.001	1.412	1.254	-0.022	1.349	1.252	0.715	1.341	1.244	0.658	1.320	1.220
281	23.697	0.058	0.743	1.492	0.041	1.025	1.465	0.024	1.300	1.427	0.038	1.438	1.384	-0.107	1.202	1.395	-0.212	1.191	1.204	-0.079	1.330	1.226	-0.053	1.369	1.245	0.213	1.239	1.427	0.404	1.219	1.374	0.619	1.214	1.310	0.680	1.214	1.297	-0.015	0.748	1.452	-0.098	0.458	1.501	-0.064	0.290	1.560	-0.026	0.284	1.521	0.128	0.750	1.464	0.168	0.452	1.521	0.147	0.276	1.587	0.130	0.265	1.553	0.028	1.233	1.438	0.002	1.414	1.256	-0.015	1.339	1.272	0.731	1.215	1.241	0.681	1.209	1.234
